<svg width="20" height="15" viewBox="0 0 20 15" fill="none" xmlns="http://www.w3.org/2000/svg">
<path d="M18.9994 0.00038329L0.999427 0.000381716C0.817186 0.000953031 0.638552 0.0512162 0.482751 0.14576C0.326951 0.240303 0.199886 0.375547 0.115232 0.536934C0.0305779 0.698322 -0.00845871 0.879742 0.00232437 1.06166C0.0131074 1.24359 0.0733012 1.41912 0.176427 1.56938L9.17643 14.5694C9.54943 15.1084 10.4474 15.1084 10.8214 14.5694L19.8214 1.56938C19.9256 1.41944 19.9867 1.24381 19.9981 1.06159C20.0094 0.879362 19.9706 0.697505 19.8859 0.535776C19.8012 0.374047 19.6738 0.23863 19.5175 0.144239C19.3612 0.0498492 19.182 9.57219e-05 18.9994 0.00038329Z" fill="#2D2D2D"/>
</svg>
