<svg width="272" height="39" viewBox="0 0 272 39" fill="none" xmlns="http://www.w3.org/2000/svg">
<path d="M0.344 4.016C1.272 4.048 2.488 4.08 3.992 4.112C5.528 4.144 7.064 4.16 8.6 4.16C10.2 4.16 11.736 4.144 13.208 4.112C14.68 4.08 15.72 4.064 16.328 4.064C20.712 4.064 23.976 4.768 26.12 6.176C28.264 7.584 29.336 9.392 29.336 11.6C29.336 12.72 28.936 13.888 28.136 15.104C27.336 16.288 26.12 17.344 24.488 18.272C22.856 19.168 20.776 19.776 18.248 20.096V20.192C21.544 20.352 24.184 20.864 26.168 21.728C28.152 22.592 29.592 23.648 30.488 24.896C31.384 26.112 31.832 27.376 31.832 28.688C31.832 30.832 31.256 32.592 30.104 33.968C28.952 35.344 27.288 36.368 25.112 37.04C22.968 37.68 20.408 38 17.432 38C16.664 38 15.528 37.984 14.024 37.952C12.552 37.888 10.776 37.856 8.696 37.856C7.096 37.856 5.528 37.872 3.992 37.904C2.488 37.904 1.272 37.936 0.344 38V37.04C1.336 36.976 2.072 36.848 2.552 36.656C3.032 36.464 3.352 36.08 3.512 35.504C3.672 34.928 3.752 34.064 3.752 32.912V9.104C3.752 7.92 3.672 7.056 3.512 6.512C3.352 5.936 3.016 5.552 2.504 5.36C2.024 5.136 1.304 5.008 0.344 4.976V4.016ZM16.088 4.976C15 4.976 14.296 5.248 13.976 5.792C13.656 6.336 13.496 7.44 13.496 9.104V32.912C13.496 34.032 13.576 34.88 13.736 35.456C13.896 36.032 14.2 36.416 14.648 36.608C15.096 36.8 15.752 36.896 16.616 36.896C18.408 36.896 19.704 36.176 20.504 34.736C21.336 33.264 21.752 31.184 21.752 28.496C21.752 26.032 21.16 24.128 19.976 22.784C18.824 21.44 16.888 20.768 14.168 20.768H10.664C10.664 20.768 10.664 20.64 10.664 20.384C10.664 20.096 10.664 19.952 10.664 19.952H14.792C16.04 19.952 17 19.6 17.672 18.896C18.344 18.16 18.808 17.2 19.064 16.016C19.32 14.8 19.448 13.504 19.448 12.128C19.448 9.76 19.192 7.984 18.68 6.8C18.168 5.584 17.304 4.976 16.088 4.976ZM47.1009 12.416C49.5969 12.416 51.7569 12.848 53.5809 13.712C55.4369 14.544 56.8769 15.92 57.9009 17.84C58.9249 19.76 59.4369 22.336 59.4369 25.568C59.4369 28.8 58.9249 31.376 57.9009 33.296C56.8769 35.216 55.4369 36.592 53.5809 37.424C51.7569 38.256 49.5969 38.672 47.1009 38.672C44.6369 38.672 42.4769 38.256 40.6209 37.424C38.7649 36.592 37.3249 35.216 36.3009 33.296C35.2769 31.376 34.7649 28.8 34.7649 25.568C34.7649 22.336 35.2769 19.76 36.3009 17.84C37.3249 15.92 38.7649 14.544 40.6209 13.712C42.4769 12.848 44.6369 12.416 47.1009 12.416ZM47.1009 13.376C46.1409 13.376 45.3409 14.336 44.7009 16.256C44.0609 18.176 43.7409 21.28 43.7409 25.568C43.7409 29.856 44.0609 32.96 44.7009 34.88C45.3409 36.768 46.1409 37.712 47.1009 37.712C48.0609 37.712 48.8609 36.768 49.5009 34.88C50.1409 32.96 50.4609 29.856 50.4609 25.568C50.4609 21.28 50.1409 18.176 49.5009 16.256C48.8609 14.336 48.0609 13.376 47.1009 13.376ZM77.1571 12.416C79.6531 12.416 81.8131 12.848 83.6371 13.712C85.4931 14.544 86.9331 15.92 87.9571 17.84C88.9811 19.76 89.4931 22.336 89.4931 25.568C89.4931 28.8 88.9811 31.376 87.9571 33.296C86.9331 35.216 85.4931 36.592 83.6371 37.424C81.8131 38.256 79.6531 38.672 77.1571 38.672C74.6931 38.672 72.5331 38.256 70.6771 37.424C68.8211 36.592 67.3811 35.216 66.3571 33.296C65.3331 31.376 64.8211 28.8 64.8211 25.568C64.8211 22.336 65.3331 19.76 66.3571 17.84C67.3811 15.92 68.8211 14.544 70.6771 13.712C72.5331 12.848 74.6931 12.416 77.1571 12.416ZM77.1571 13.376C76.1971 13.376 75.3971 14.336 74.7571 16.256C74.1171 18.176 73.7971 21.28 73.7971 25.568C73.7971 29.856 74.1171 32.96 74.7571 34.88C75.3971 36.768 76.1971 37.712 77.1571 37.712C78.1171 37.712 78.9171 36.768 79.5571 34.88C80.1971 32.96 80.5171 29.856 80.5171 25.568C80.5171 21.28 80.1971 18.176 79.5571 16.256C78.9171 14.336 78.1171 13.376 77.1571 13.376ZM105.113 0.463997V33.536C105.113 34.88 105.305 35.792 105.689 36.272C106.105 36.752 106.809 36.992 107.801 36.992V38C107.161 37.968 106.201 37.936 104.921 37.904C103.641 37.84 102.329 37.808 100.985 37.808C99.6406 37.808 98.2806 37.84 96.9046 37.904C95.5286 37.936 94.4886 37.968 93.7846 38V36.992C94.7766 36.992 95.4646 36.752 95.8486 36.272C96.2646 35.792 96.4726 34.88 96.4726 33.536V6.224C96.4726 4.784 96.2806 3.728 95.8966 3.056C95.5126 2.352 94.8086 2 93.7846 2V0.991999C94.8086 1.088 95.8006 1.136 96.7606 1.136C98.3606 1.136 99.8486 1.088 101.225 0.991999C102.633 0.863998 103.929 0.687998 105.113 0.463997ZM121.049 13.088V14.048C119.897 14.368 118.729 14.928 117.545 15.728C116.361 16.528 115.161 17.536 113.945 18.752L112.265 20.432L112.601 19.808L120.329 34.496C120.585 34.976 120.857 35.456 121.145 35.936C121.433 36.384 121.801 36.736 122.249 36.992V38C121.705 37.968 120.873 37.936 119.753 37.904C118.665 37.84 117.561 37.808 116.441 37.808C115.161 37.808 113.865 37.84 112.553 37.904C111.273 37.936 110.313 37.968 109.673 38V36.992C110.313 36.992 110.729 36.848 110.921 36.56C111.145 36.272 111.129 35.872 110.873 35.36L106.649 26.432C106.425 25.984 106.169 25.696 105.881 25.568C105.593 25.44 105.257 25.376 104.873 25.376V24.464C105.321 24.464 105.737 24.432 106.121 24.368C106.505 24.272 106.857 24.064 107.177 23.744L110.873 20.288C111.993 19.264 112.553 18.304 112.553 17.408C112.585 16.48 112.233 15.712 111.497 15.104C110.793 14.496 109.865 14.144 108.713 14.048V13.088C109.641 13.12 110.633 13.152 111.689 13.184C112.777 13.216 113.705 13.232 114.473 13.232C115.145 13.232 115.913 13.232 116.777 13.232C117.641 13.2 118.457 13.184 119.225 13.184C120.025 13.152 120.633 13.12 121.049 13.088ZM137.41 12.416C140.226 12.416 142.434 13.248 144.034 14.912C145.666 16.544 146.482 19.296 146.482 23.168H131.458L131.362 22.256H139.474C139.506 20.688 139.442 19.248 139.282 17.936C139.122 16.592 138.866 15.52 138.514 14.72C138.162 13.92 137.682 13.52 137.074 13.52C136.21 13.52 135.506 14.208 134.962 15.584C134.418 16.928 134.066 19.248 133.906 22.544L134.098 22.928C134.066 23.248 134.05 23.568 134.05 23.888C134.05 24.208 134.05 24.544 134.05 24.896C134.05 27.136 134.322 28.88 134.866 30.128C135.442 31.376 136.146 32.24 136.978 32.72C137.842 33.2 138.706 33.44 139.57 33.44C140.018 33.44 140.546 33.376 141.154 33.248C141.794 33.12 142.482 32.832 143.218 32.384C143.954 31.904 144.674 31.184 145.378 30.224L146.194 30.512C145.81 31.792 145.186 33.072 144.322 34.352C143.49 35.6 142.402 36.64 141.058 37.472C139.714 38.272 138.082 38.672 136.162 38.672C134.114 38.672 132.242 38.256 130.546 37.424C128.882 36.592 127.554 35.216 126.562 33.296C125.57 31.376 125.074 28.8 125.074 25.568C125.074 22.496 125.618 20 126.706 18.08C127.794 16.128 129.266 14.704 131.122 13.808C133.01 12.88 135.106 12.416 137.41 12.416ZM175.903 0.463997V32.72C175.903 34.16 176.095 35.232 176.479 35.936C176.895 36.608 177.599 36.944 178.591 36.944V37.952C177.599 37.856 176.607 37.808 175.615 37.808C174.015 37.808 172.527 37.856 171.151 37.952C169.775 38.048 168.479 38.224 167.263 38.48V6.224C167.263 4.784 167.071 3.728 166.687 3.056C166.303 2.352 165.599 2 164.575 2V0.991999C165.599 1.088 166.591 1.136 167.551 1.136C169.151 1.136 170.639 1.088 172.015 0.991999C173.423 0.863998 174.719 0.687998 175.903 0.463997ZM162.271 12.416C163.679 12.416 164.863 12.592 165.823 12.944C166.783 13.264 167.631 13.792 168.367 14.528L167.839 15.056C167.423 14.704 166.959 14.448 166.447 14.288C165.935 14.096 165.455 14 165.007 14C163.535 14 162.431 14.944 161.695 16.832C160.959 18.72 160.591 21.616 160.591 25.52C160.591 28.336 160.735 30.528 161.023 32.096C161.311 33.632 161.695 34.704 162.175 35.312C162.687 35.888 163.231 36.176 163.807 36.176C164.703 36.176 165.503 35.856 166.207 35.216C166.911 34.544 167.263 33.712 167.263 32.72V35.072C166.623 36.288 165.839 37.2 164.911 37.808C163.983 38.384 162.815 38.672 161.407 38.672C159.583 38.672 157.919 38.224 156.415 37.328C154.943 36.4 153.775 34.96 152.911 33.008C152.047 31.056 151.615 28.512 151.615 25.376C151.615 22.464 152.047 20.064 152.911 18.176C153.807 16.256 155.055 14.816 156.655 13.856C158.255 12.896 160.127 12.416 162.271 12.416Z" fill="#2D2D2D"/>
<path d="M205.873 4.208C204.625 4.208 203.409 4.656 202.225 5.552C201.041 6.416 199.937 7.632 198.913 9.2C197.889 10.736 196.993 12.512 196.225 14.528C195.457 16.512 194.849 18.64 194.401 20.912C193.985 23.184 193.777 25.472 193.777 27.776C193.777 30.912 194.177 33.376 194.977 35.168C195.777 36.928 196.785 37.808 198.001 37.808C199.249 37.808 200.465 37.376 201.649 36.512C202.833 35.616 203.937 34.4 204.961 32.864C205.985 31.296 206.881 29.52 207.649 27.536C208.417 25.52 209.009 23.376 209.425 21.104C209.873 18.832 210.097 16.544 210.097 14.24C210.097 11.104 209.697 8.656 208.897 6.896C208.097 5.104 207.089 4.208 205.873 4.208ZM183.409 27.152C183.409 25.04 183.761 22.864 184.465 20.624C185.169 18.384 186.177 16.24 187.489 14.192C188.801 12.144 190.385 10.304 192.241 8.672C194.129 7.04 196.257 5.744 198.625 4.784C200.993 3.824 203.553 3.344 206.305 3.344C210.721 3.344 214.193 4.352 216.721 6.368C219.249 8.352 220.513 11.2 220.513 14.912C220.513 17.024 220.161 19.2 219.457 21.44C218.753 23.648 217.729 25.776 216.385 27.824C215.073 29.872 213.473 31.712 211.585 33.344C209.697 34.976 207.569 36.272 205.201 37.232C202.865 38.192 200.321 38.672 197.569 38.672C193.153 38.672 189.681 37.68 187.153 35.696C184.657 33.68 183.409 30.832 183.409 27.152ZM239.837 21.008C238.589 24.752 237.421 27.792 236.333 30.128C235.245 32.432 234.173 34.208 233.117 35.456C232.093 36.672 231.021 37.52 229.901 38C228.813 38.448 227.629 38.672 226.349 38.672C225.069 38.672 224.045 38.4 223.277 37.856C222.509 37.312 222.045 36.512 221.885 35.456C221.757 34.368 221.949 33.024 222.461 31.424L227.117 17.168C227.437 16.24 227.469 15.68 227.213 15.488C226.989 15.264 226.765 15.152 226.541 15.152C226.253 15.152 225.885 15.328 225.437 15.68C224.989 16 224.509 16.832 223.997 18.176L222.989 20.864H222.077L223.277 17.36C223.757 16.016 224.365 14.992 225.101 14.288C225.869 13.584 226.685 13.104 227.549 12.848C228.445 12.56 229.309 12.416 230.141 12.416C231.581 12.416 232.733 12.72 233.597 13.328C234.461 13.904 234.989 14.8 235.181 16.016C235.373 17.232 235.149 18.784 234.509 20.672L230.381 33.104C229.805 34.832 229.837 35.696 230.477 35.696C230.989 35.696 231.597 35.264 232.301 34.4C233.005 33.536 233.757 32.352 234.557 30.848C235.357 29.344 236.157 27.632 236.957 25.712C237.757 23.76 238.525 21.728 239.261 19.616C239.997 17.472 240.637 15.344 241.181 13.232L239.837 21.008ZM243.821 33.92C243.597 34.656 243.501 35.184 243.533 35.504C243.597 35.792 243.837 35.936 244.253 35.936C244.733 35.936 245.181 35.728 245.597 35.312C246.045 34.864 246.477 34.064 246.893 32.912L247.997 29.984H248.909L247.565 33.728C247.149 34.912 246.573 35.872 245.837 36.608C245.133 37.344 244.333 37.872 243.437 38.192C242.573 38.512 241.661 38.672 240.701 38.672C239.581 38.672 238.669 38.496 237.965 38.144C237.293 37.824 236.781 37.376 236.429 36.8C236.045 36.16 235.853 35.424 235.853 34.592C235.885 33.728 236.013 32.848 236.237 31.952L241.181 13.088C242.845 13.056 244.397 12.992 245.837 12.896C247.277 12.8 248.621 12.64 249.869 12.416L243.821 33.92ZM271.334 13.088L271.19 14.048H253.382L253.622 13.088H271.334ZM260.438 33.92C260.246 34.592 260.23 35.104 260.39 35.456C260.582 35.776 260.886 35.936 261.302 35.936C261.942 35.936 262.582 35.584 263.222 34.88C263.862 34.176 264.374 33.312 264.758 32.288L265.526 30.224H266.438L265.526 32.864C264.918 34.688 263.958 36.112 262.646 37.136C261.334 38.16 259.75 38.672 257.894 38.672C256.294 38.672 255.062 38.304 254.198 37.568C253.334 36.8 252.822 35.792 252.662 34.544C252.502 33.296 252.63 31.92 253.046 30.416L260.054 6.032C261.814 6 263.382 5.936 264.758 5.84C266.134 5.744 267.478 5.584 268.79 5.36L260.438 33.92Z" fill="#821100"/>
</svg>
